<svg width="694" height="537" viewBox="0 0 694 537" fill="none" xmlns="http://www.w3.org/2000/svg">
<path d="M576.114 232.937C576.114 232.937 574.096 254.704 569.052 266.052C564.008 277.411 552.9 286.867 551.891 291.601C550.882 296.335 548.865 337.966 548.865 337.966" stroke="#363636" stroke-linecap="round" stroke-linejoin="round"/>
<path d="M548.865 350.254V368.238" stroke="#363636" stroke-linecap="round" stroke-linejoin="round"/>
<path d="M66.3765 251.664C66.3765 251.664 68.394 284.779 91.6077 300.86" stroke="#363636" stroke-linecap="round" stroke-linejoin="round"/>
<path d="M65.3677 242.208C65.3677 242.208 65.3677 228.957 68.394 219.501" stroke="#363636" stroke-linecap="round" stroke-linejoin="round"/>
<path d="M693.017 491.774C672.284 495.94 672.284 522.301 657.489 519.528C642.682 516.755 675.253 494.547 682.662 465.401C690.06 436.254 660.457 416.831 651.575 436.254C642.693 455.678 647.134 502.866 641.209 500.093C635.284 497.32 645.65 402.942 621.961 383.519C598.272 364.084 577.54 386.292 584.949 426.543C592.347 466.793 624.918 502.867 613.079 505.651C601.24 508.424 587.906 464.02 570.142 445.978C552.378 427.935 537.571 441.812 549.41 468.185C561.249 494.559 616.036 536.19 616.036 536.19C616.036 536.19 604.348 539.323 582.653 522.371C560.959 505.419 550.767 505.732 546.488 512.508C542.209 519.285 551.416 526.374 560.298 529.147" stroke="#363636" stroke-linecap="round" stroke-linejoin="round"/>
<path d="M62.3413 389.054C62.3413 389.054 90.5989 393.788 88.5813 405.135C86.5637 416.495 51.2331 415.543 22.9756 430.685C-5.28194 445.827 20.958 464.751 14.9053 482.724C8.85263 500.697 -60.7998 525.306 -60.7998 525.306" stroke="#363636" stroke-linecap="round" stroke-linejoin="round"/>
<path d="M278.975 173.948C287.509 171.581 296.762 168.669 304.136 163.923C318.897 154.443 316.16 150.046 307.881 136.726C284.32 98.8423 366.507 88.5274 389.697 86.3809" stroke="#363636" stroke-linecap="round" stroke-linejoin="round"/>
<path d="M639.273 18.4576C641.406 14.0253 644.189 9.19847 648.978 6.46019C654.126 3.51305 659.576 2.35277 664.516 0.786377" stroke="#363636" stroke-linecap="round" stroke-linejoin="round"/>
<path d="M502.727 71.2391C502.727 71.2391 585.761 77.7251 613.45 64.7531C625.787 58.9749 630.101 49.3212 632.942 39.3544" stroke="#363636" stroke-linecap="round" stroke-linejoin="round"/>
<path d="M476.557 88.8639C476.557 88.8639 468.568 97.8445 468.568 106.083C468.568 114.321 471.757 125.541 473.357 136.772C474.957 148.004 464.568 168.216 464.568 168.216C464.568 168.216 478.54 158.238 481.334 153.248C484.129 148.259 486.923 139.023 486.923 139.023C486.923 139.023 494.112 133.779 494.912 127.792C495.712 121.805 497.312 118.057 497.312 110.573C497.312 103.089 491.724 85.1278 476.545 88.8639H476.557Z" fill="white"/>
<path d="M388.723 174.957L428.646 181.699L437.435 172.718L431.046 169.724C431.046 169.724 394.312 172.718 388.723 174.969V174.957Z" fill="white"/>
<path d="M290.5 446.674V552.214H307.267V433.191C307.267 433.191 300.878 441.429 290.5 446.662V446.674Z" fill="white"/>
<path d="M280.111 313.426C280.111 313.426 288.1 341.122 284.9 353.096C281.711 365.071 276.911 375.548 272.922 380.038C268.933 384.529 249.766 401.747 245.766 401.747C245.766 401.747 268.922 399.496 283.3 388.276C297.678 377.045 309.656 359.084 311.244 343.362C312.844 327.64 304.855 309.678 304.855 309.678H286.488L280.099 313.426H280.111Z" fill="white"/>
<path d="M227.411 169.713L199.466 176.454C199.466 176.454 252.967 188.428 276.922 210.891L303.278 206.401C303.278 206.401 285.711 182.453 227.411 169.724V169.713Z" fill="white"/>
<path d="M478.157 167.462C478.157 167.462 481.346 171.21 482.946 178.693C484.546 186.177 484.546 189.171 484.546 189.171C484.546 189.171 492.535 186.92 509.302 192.164C526.069 197.409 543.635 198.906 533.258 201.145C522.88 203.384 506.102 198.151 519.68 204.139C533.258 210.126 542.035 204.893 545.236 213.119C548.424 221.357 549.224 249.796 543.635 251.293C538.047 252.789 522.08 245.306 522.08 252.047C522.08 258.788 534.858 261.028 533.258 270.762C531.658 280.497 530.069 286.484 523.68 293.968C517.291 301.452 508.502 293.214 501.324 291.717C494.135 290.22 504.513 297.704 506.113 308.936C507.713 320.167 496.536 326.897 496.536 326.897C496.536 326.897 484.558 308.182 486.158 316.42C487.758 324.658 492.547 332.884 491.747 338.129C490.947 343.373 477.369 339.625 474.98 331.387C472.58 323.149 459.906 308.518 458.213 315.666C456.521 322.824 466.203 335.124 467.003 344.116C467.803 353.096 459.014 361.334 459.014 361.334L448.636 360.58H442.247C442.247 360.58 440.647 370.315 431.869 377.799C423.08 385.283 418.291 386.037 427.88 390.527C437.458 395.018 461.425 396.514 482.981 396.514C504.536 396.514 526.103 381.547 530.092 377.056C534.081 372.566 530.892 359.838 530.892 350.114C530.892 340.391 540.47 294.722 540.47 294.722C540.47 294.722 562.025 258.788 563.626 246.814C565.226 234.84 558.906 210.764 556.436 207.144C553.967 203.524 548.447 195.17 538.07 188.428C527.692 181.687 486.158 168.97 486.158 168.97C486.158 168.97 489.347 166.719 486.158 162.983C482.969 159.235 479.769 158.493 479.769 158.493L478.169 167.473L478.157 167.462Z" fill="white"/>
<g style="mix-blend-mode:multiply">
<path d="M395.02 172.59C395.02 172.59 378.531 173.275 372.119 183.056C365.707 192.837 361.695 221.404 360.883 230.431C360.083 239.458 344.836 261.26 348.847 268.024" stroke="#363636" stroke-linecap="round" stroke-linejoin="round"/>
<path d="M336.812 326.34C336.812 326.34 336.812 341.145 341.751 346.703C346.691 352.261 349.648 354.106 361.498 354.106C373.348 354.106 372.363 348.548 372.363 348.548" stroke="#363636" stroke-linecap="round" stroke-linejoin="round"/>
<path d="M378.16 361.509C378.16 361.509 373.545 409.08 374.705 425.29C375.853 441.51 381.627 551.68 381.627 551.68H533.861C533.861 551.68 536.168 470.692 536.168 436.103C536.168 401.515 528.098 370.153 528.098 370.153C528.098 370.153 440.45 390.69 378.172 361.509H378.16Z" fill="#363636"/>
<path d="M480.418 170.27C480.418 170.27 499.237 173.403 511.401 178.287C523.564 183.172 551.346 191.317 553.955 203.524C556.564 215.73 551.346 240.154 546.14 267.026C540.934 293.887 533.2 314.528 532.249 329.705C530.162 362.773 533.721 370.872 527.912 376.917C520.549 384.575 488.836 397.269 449.749 394.008C410.673 390.748 378.879 376.105 374.542 359.002C370.206 341.911 379.749 307.021 374.542 258.985C369.336 210.961 379.401 175.015 395.043 172.567C410.673 170.131 452.358 168.495 461.043 168.495C469.727 168.495 480.441 170.247 480.441 170.247L480.418 170.27Z" fill="white" stroke="#363636" stroke-linecap="round" stroke-linejoin="round"/>
<path d="M432.182 210.369L439.209 229.189C439.209 229.189 420.135 312.95 414.105 329.891C410.174 340.96 407.519 356.044 406.151 365.175C405.386 370.28 406.51 375.467 409.316 379.899L414.94 388.787C416.853 391.815 421.144 392.639 424.181 390.551L433.353 384.239C438.328 380.816 441.377 375.455 441.655 369.677L448.242 232.009L464.301 215.068L448.242 191.538L432.182 210.358V210.369Z" fill="#C2B7BC"/>
<path d="M438.606 168.599C438.606 168.599 435.429 172.312 430.675 180.492C425.921 188.672 419.938 214.396 424.703 216.623C429.457 218.851 449.285 206.215 449.285 206.215C449.285 206.215 453.251 224.049 462.77 222.564C472.29 221.079 488.141 188.37 487.352 174.25C486.564 160.129 481.798 157.158 473.867 155.662C465.936 154.177 438.606 168.587 438.606 168.587V168.599Z" fill="white" stroke="#363636" stroke-linecap="round" stroke-linejoin="round"/>
<path d="M438.177 172.022C438.177 172.022 442.931 180.202 443.731 189.113C444.322 195.738 446.908 202.491 450.074 202.491C453.239 202.491 478.621 170.525 478.621 164.584C478.621 158.644 477.033 144.511 477.033 144.511C477.033 144.511 446.897 169.782 438.177 172.01V172.022Z" fill="white" stroke="#363636" stroke-linecap="round" stroke-linejoin="round"/>
<g style="mix-blend-mode:multiply">
<path d="M474.725 162.426C474.725 162.426 465.437 177.231 457.077 182.453C448.717 187.674 443.14 184.193 443.14 184.193L436.936 171.65C436.936 171.65 466.365 167.648 474.725 162.415V162.426Z" fill="#C2B7BC"/>
</g>
<path d="M430.779 74.0354C426.095 76.472 420.842 79.3495 419.033 84.3968C414.279 97.6473 415.218 121.828 417.711 138.199C419.08 147.215 422.523 165.234 436.936 171.662C455.883 180.121 476.221 163.285 484.164 148.247C493.95 129.718 493.208 105.015 486.772 85.6731C484.442 78.665 479.978 74.0818 472.557 71.7844C459.338 67.6886 443.221 67.561 430.791 74.0354H430.779Z" fill="white" stroke="#363636" stroke-linecap="round" stroke-linejoin="round"/>
<path d="M434.177 115.667C434.177 115.667 433.492 133.686 433.492 140.125C433.492 146.565 436.24 147.853 440.357 147.853C444.473 147.853 450.653 140.125 450.653 140.125" fill="white"/>
<path d="M434.177 115.667C434.177 115.667 433.492 133.686 433.492 140.125C433.492 146.565 436.24 147.853 440.357 147.853C444.473 147.853 450.653 140.125 450.653 140.125" stroke="#363636" stroke-linecap="round" stroke-linejoin="round"/>
<path d="M450.039 109.54C450.039 109.54 457.367 108.577 464.046 112.766L450.039 109.54Z" fill="white"/>
<path d="M450.039 109.54C450.039 109.54 457.367 108.577 464.046 112.766" stroke="#363636" stroke-linecap="round" stroke-linejoin="round"/>
<path d="M432.762 104.597C432.762 104.597 425.805 103.449 421.909 107.951L432.762 104.597Z" fill="white"/>
<path d="M432.762 104.597C432.762 104.597 425.805 103.449 421.909 107.951" stroke="#363636" stroke-linecap="round" stroke-linejoin="round"/>
<path d="M449.842 124.752C449.842 124.752 453.715 128.024 463.71 125.958L449.842 124.752Z" fill="white"/>
<path d="M449.842 124.752C449.842 124.752 453.715 128.024 463.71 125.958" stroke="#363636" stroke-linecap="round" stroke-linejoin="round"/>
<path d="M420.448 122.106C420.448 122.106 425.26 127.258 430.744 124.032L420.448 122.106Z" fill="white"/>
<path d="M420.448 122.106C420.448 122.106 425.26 127.258 430.744 124.032" stroke="#363636" stroke-linecap="round" stroke-linejoin="round"/>
<path d="M486.761 85.6731C486.761 85.6731 488.431 59.671 470.574 53.8812" stroke="#363636" stroke-miterlimit="10"/>
<path d="M491.167 86.0676C491.167 86.0676 476.743 57.1068 451.349 54.5309" stroke="#363636" stroke-miterlimit="10" stroke-linecap="round"/>
<path d="M498.727 96.3594C496.663 87.3439 491.179 86.056 491.179 86.056C491.179 86.056 486.703 76.6345 479.131 69.3479C479.259 69.3479 479.375 69.3246 479.502 69.3246C479.502 69.3246 478.215 67.9671 475.432 66.1919C473.705 64.8923 471.849 63.7669 469.89 62.8966C468.591 62.3165 467.177 61.8756 465.669 61.5507C459.674 59.4506 451.581 57.745 441.053 57.745C413.584 57.745 398.487 70.6126 397.107 82.2039C395.738 93.7835 412.899 82.2038 410.835 84.1299C408.771 86.056 395.727 93.7835 404.655 99.5734C410.209 103.17 416.517 101.79 421.955 98.7844C424.877 97.1716 434.107 92.4724 435.765 89.8966C434.536 91.7994 432.345 94.8394 429.365 97.6357C424.553 102.138 420.436 103.426 420.436 103.426C420.436 103.426 428.68 104.064 436.913 98.2738C445.157 92.484 456.822 86.6942 467.814 86.6942C478.807 86.6942 476.743 95.7096 476.743 95.7096C476.743 95.7096 469.194 104.075 473.995 108.577C478.795 113.079 482.239 113.079 482.923 115.017C483.607 116.943 482.239 122.095 484.291 122.095C486.343 122.095 485.659 112.441 489.103 112.441C492.547 112.441 496.652 118.231 496.652 118.231C496.652 118.231 500.768 105.363 498.716 96.3478L498.727 96.3594Z" fill="#363636"/>
<path d="M482.934 124.682C482.934 124.682 485.683 110.526 493.231 110.526C500.779 110.526 498.043 119.542 495.295 128.546C492.547 137.561 485.683 138.838 485.683 138.838" fill="white"/>
<path d="M482.934 124.682C482.934 124.682 485.683 110.526 493.231 110.526C500.779 110.526 498.043 119.542 495.295 128.546C492.547 137.561 485.683 138.838 485.683 138.838" stroke="#363636" stroke-linecap="round" stroke-linejoin="round"/>
<path d="M527.483 208.687C527.483 208.687 498.692 222.46 494.066 239.319C489.439 256.178 473.194 290.278 466.736 295.604C466.736 295.604 457.552 302.844 467.095 307.729C476.65 312.614 485.335 331.341 488.802 340.287C492.28 349.244 505.986 345.253 506.426 338.755C506.867 332.258 513.604 322.871 519.946 319.17C526.289 315.468 552.459 276.251 560.947 253.915C569.435 231.579 557.329 204.754 549.537 204.289" fill="white"/>
<path d="M527.483 208.687C527.483 208.687 498.692 222.46 494.066 239.319C489.439 256.178 473.194 290.278 466.736 295.604C466.736 295.604 457.552 302.844 467.095 307.729C476.65 312.614 485.335 331.341 488.802 340.287C492.28 349.244 505.986 345.253 506.426 338.755C506.867 332.258 513.604 322.871 519.946 319.17C526.289 315.468 552.459 276.251 560.947 253.915C569.435 231.579 557.329 204.754 549.537 204.289" stroke="#363636" stroke-linecap="round" stroke-linejoin="round"/>
<path d="M334.759 220.974L347.282 286.101C347.734 288.666 350.308 290.418 353.057 290.023C355.967 289.605 357.892 286.972 357.254 284.28L344.349 219.222C343.78 216.844 341.554 215.985 338.992 216.38C336.325 216.797 334.319 218.468 334.759 220.963V220.974Z" fill="white" stroke="#363636" stroke-linecap="round" stroke-linejoin="round"/>
<path d="M352.013 252.244C352.013 252.244 337.82 246.199 334.806 247C331.791 247.812 330.933 256.27 330.933 256.27C330.933 256.27 331.362 259.902 332.649 264.74C333.936 269.579 338.238 276.842 342.969 279.256C347.7 281.681 354.587 281.681 357.161 279.256C359.735 276.831 358.019 267.56 358.019 267.56" fill="white"/>
<path d="M352.013 252.244C352.013 252.244 337.82 246.199 334.806 247C331.791 247.812 330.933 256.27 330.933 256.27C330.933 256.27 331.362 259.902 332.649 264.74C333.936 269.579 338.238 276.842 342.969 279.256C347.7 281.681 354.587 281.681 357.161 279.256C359.735 276.831 358.019 267.56 358.019 267.56" stroke="#363636" stroke-linecap="round" stroke-linejoin="round"/>
<path d="M358.901 243.368C358.901 243.368 351.746 243.217 351.746 248.485C351.746 253.753 351.12 263.116 352.999 264.88C354.877 266.632 361.741 266.632 362.994 260.784C363.747 257.257 364.142 252.511 364.35 249.297C364.524 246.489 362.507 243.832 359.538 243.414C359.318 243.38 359.109 243.368 358.901 243.368Z" fill="white" stroke="#363636" stroke-linecap="round" stroke-linejoin="round"/>
<path d="M315.627 193.847L322.26 229.027C323.929 238.402 333.321 244.795 343.351 243.368C353.984 241.86 361.022 232.229 358.692 222.39L350.668 187.465C348.604 178.786 340.464 175.63 331.107 177.092C321.378 178.612 314.015 184.727 315.639 193.847H315.627Z" fill="white" stroke="#363636" stroke-linecap="round" stroke-linejoin="round"/>
<g style="mix-blend-mode:multiply">
<path d="M333.959 176.802C333.02 176.849 332.069 176.941 331.095 177.092C321.367 178.612 314.004 184.727 315.627 193.847L322.26 229.027C323.929 238.402 333.321 244.795 343.351 243.368C344.882 243.147 346.331 242.753 347.688 242.219L333.959 176.814V176.802Z" fill="#C2B7BC"/>
</g>
<path d="M349.798 185.203C351.224 191.515 344.615 198.163 335.049 200.066C325.472 201.969 316.566 198.384 315.14 192.083C313.714 185.771 320.323 179.123 329.889 177.22C339.467 175.317 348.372 178.902 349.798 185.203Z" fill="white" stroke="#363636" stroke-linecap="round" stroke-linejoin="round"/>
<path d="M350.853 257.697C352.941 263.302 350.332 269.242 345.033 270.971C339.734 272.7 333.762 269.567 331.675 263.963C329.588 258.359 332.197 252.418 337.496 250.689C342.795 248.961 348.766 252.093 350.853 257.697Z" fill="#363636"/>
<path d="M328.602 260.355L283.59 293.4C283.59 293.4 279.497 297.751 284.355 297.727C289.225 297.704 337.403 268.894 337.403 268.894C337.403 268.894 344.383 259.728 328.591 260.343L328.602 260.355Z" fill="#363636"/>
<path d="M457.518 341.54C458.828 335.089 446.989 317.255 439.36 314.354C439.36 314.354 425.932 307.021 414.778 304.724C403.623 302.427 382.879 300.361 366.043 292.019L349.207 283.665C349.207 283.665 346.841 267.212 345.45 262.234C344.047 257.257 340.8 253.799 333.008 253.335C325.205 252.871 315.894 249.042 313.134 251.328C310.363 253.613 311.604 261.028 311.604 261.028L300.461 267.27C295.938 267.003 290.292 266.643 288.436 266.643C285.445 266.643 281.955 271.783 286.442 273.187C290.929 274.591 305.389 275.52 305.389 275.52C312.508 283.375 319.129 292.251 326.689 299.665C330.794 303.691 337.867 304.283 341.508 307.683C341.508 307.683 385.616 341.227 399.681 348.27C423.984 360.429 450.908 362.367 456.335 359.42C461.762 356.484 456.242 347.991 457.553 341.552L457.518 341.54Z" fill="white" stroke="#363636" stroke-linecap="round" stroke-linejoin="round"/>
<g style="mix-blend-mode:multiply">
<path d="M435.046 314.482C435.046 314.482 441.957 328.278 443.406 337.827C444.856 347.365 435.406 353.503 427.405 352.818C419.404 352.133 390.323 341.911 390.323 341.911C390.323 341.911 417.433 358.492 436.855 358.956C456.289 359.408 460.846 362.367 463.756 356.229C466.666 350.091 465.205 329.647 456.486 322.836C447.755 316.025 438.304 308.193 435.035 314.494L435.046 314.482Z" fill="#C2B7BC"/>
</g>
<path d="M498.948 340.763C498.669 339.44 498.461 338.105 498.287 336.771C497.602 331.457 494.715 317.87 482.842 306.963C467.733 293.075 456.057 294.107 452.393 295.616C448.717 297.124 441.087 304.457 441.087 304.457C441.087 304.457 428.414 307.161 435.046 314.482C441.679 321.803 452.532 332.838 453.599 343.292C454.665 353.746 453.854 365.813 466.585 362.239C479.317 358.677 481.276 356.194 492.106 354.245C500.524 352.737 499.724 344.406 498.936 340.763H498.948Z" fill="white" stroke="#363636" stroke-linecap="round" stroke-linejoin="round"/>
<path d="M307.708 263.534C307.708 263.534 321.9 263.534 323.628 265.147C325.344 266.759 325.773 267.966 325.773 267.966" stroke="#363636" stroke-linecap="round" stroke-linejoin="round"/>
<path d="M311.58 261.016C311.58 261.016 317.169 259.902 324.057 259.902C330.944 259.902 334.377 261.921 334.377 261.921" stroke="#363636" stroke-linecap="round" stroke-linejoin="round"/>
<path d="M447.523 307.88C447.523 307.88 470.783 316.907 471.594 329.682" stroke="#363636" stroke-linecap="round" stroke-linejoin="round"/>
<path d="M474.006 337.2C474.006 337.2 474.806 344.719 474.806 348.478" stroke="#363636" stroke-linecap="round" stroke-linejoin="round"/>
<path d="M440.763 154.501C440.763 154.501 450.491 157.1 456.741 150.591L440.763 154.501Z" fill="white"/>
<path d="M440.763 154.501C440.763 154.501 450.491 157.1 456.741 150.591" stroke="#363636" stroke-linecap="round" stroke-linejoin="round"/>
<path d="M426.605 402.594C426.605 402.594 430.06 443.68 433.527 447.996C436.983 452.324 445.065 457.731 445.065 457.731" stroke="white" stroke-linecap="round" stroke-linejoin="round"/>
<path d="M466.968 441.51C466.968 441.51 448.52 464.217 448.52 469.613C448.52 475.008 449.668 550.601 449.668 550.601" stroke="white" stroke-miterlimit="10" stroke-linecap="round"/>
<path d="M525.79 386.374C525.79 386.374 510.798 405.832 476.198 405.832L473.96 397.118" stroke="white" stroke-linecap="round" stroke-linejoin="round"/>
<path d="M307.499 426.728H98.472V552.562H307.499V426.728Z" fill="white" stroke="#363636" stroke-miterlimit="10"/>
<path d="M126.347 552.562V466.782C126.347 463.173 123.228 460.249 119.378 460.249C115.529 460.249 112.41 463.173 112.41 466.782V552.562H126.347Z" fill="#51D289" stroke="#363636" stroke-miterlimit="10"/>
<path d="M282.419 552.562V475.495C282.419 471.887 279.299 468.963 275.45 468.963C271.6 468.963 268.481 471.887 268.481 475.495V552.562H282.419Z" fill="#51D289" stroke="#363636" stroke-miterlimit="10"/>
<path d="M157.005 552.562V477.236C157.005 473.627 153.886 470.703 150.036 470.703C146.186 470.703 143.067 473.627 143.067 477.236V552.562H157.005Z" fill="#51D289" stroke="#363636" stroke-miterlimit="10"/>
<path d="M197.924 552.562V483.791C197.924 478.965 193.75 475.066 188.613 475.066C183.465 475.066 179.302 478.976 179.302 483.791V552.562H197.924Z" fill="#51D289" stroke="#363636" stroke-miterlimit="10"/>
<path d="M247.157 552.562V482.921C247.157 478.094 242.983 474.196 237.846 474.196C232.698 474.196 228.536 478.106 228.536 482.921V552.562H247.157Z" fill="#51D289" stroke="#363636" stroke-miterlimit="10"/>
<path d="M307.499 426.728H98.472V552.562H307.499V426.728Z" stroke="#363636" stroke-miterlimit="10"/>
<path d="M202.991 463.742C260.709 463.742 307.499 447.17 307.499 426.728C307.499 406.287 260.709 389.715 202.991 389.715C145.273 389.715 98.4836 406.287 98.4836 426.728C98.4836 447.17 145.273 463.742 202.991 463.742Z" fill="white" stroke="#363636" stroke-linecap="round" stroke-linejoin="round"/>
<path d="M202.991 463.742C260.709 463.742 307.499 447.17 307.499 426.728C307.499 406.287 260.709 389.715 202.991 389.715C145.273 389.715 98.4836 406.287 98.4836 426.728C98.4836 447.17 145.273 463.742 202.991 463.742Z" stroke="#363636" stroke-linecap="round" stroke-linejoin="round"/>
<g style="mix-blend-mode:multiply">
<path d="M196.486 452.22C238.861 452.22 273.212 441.197 273.212 427.599C273.212 414.001 238.861 402.977 196.486 402.977C154.112 402.977 119.761 414.001 119.761 427.599C119.761 441.197 154.112 452.22 196.486 452.22Z" fill="#C2B7BC"/>
</g>
<path d="M311.314 333.801C311.314 323.706 309.366 315.085 305.702 307.567C305.157 307.184 303.29 305.896 300.066 303.656C296.182 300.965 292.309 301.301 292.309 301.301C292.309 301.301 289.723 296.277 287.138 293.666C284.552 291.067 279.381 292.529 279.381 292.529C279.381 292.529 277.444 289.965 274.847 287.366C272.261 284.767 263.205 284.744 263.205 284.744C263.205 284.744 259.97 276.633 256.735 272.166C255.297 270.182 254.52 269.219 254.08 268.743C242.125 263.859 235.412 263.128 219.99 258.997C185.564 249.703 177.134 245.503 177.134 233.981C177.134 225.418 185.216 219.721 201.727 220.858C202.11 220.882 202.493 220.928 202.887 220.963L244.444 254.82L270.591 248.334L304.67 205.566C282.894 187.604 256.897 175.932 225.277 170.455V149.709L186.63 147.041L160.483 153.527L166.745 165.826L167.313 170.061C130.776 177.359 108.293 201.087 108.293 235.814C108.293 282.899 148.691 298.528 201.032 313.333C234.403 322.883 242.832 325.11 242.832 335.971C242.832 345.845 233 351.101 214.378 349.813C185.923 347.852 159.219 336.458 134.638 316.652L108.49 323.138L89.8568 364.015L119.077 376.987L121.79 375.095C141.258 386.896 163.278 395.064 186.619 399.601V421.333L196.092 421.983L199.118 430.476L225.266 423.99L225.764 403.232C278.163 402.757 311.337 377.753 311.337 333.766L311.314 333.801Z" fill="white" stroke="#363636" stroke-linecap="round" stroke-linejoin="round"/>
<g style="mix-blend-mode:multiply">
<path d="M304.635 205.577L268.898 214.454L244.421 254.82L270.568 248.334L304.635 205.577Z" fill="#C2B7BC"/>
</g>
<g style="mix-blend-mode:multiply">
<path d="M199.107 430.511L225.242 424.025V403.267L197.24 406.4L199.107 430.511Z" fill="#C2B7BC"/>
</g>
<g style="mix-blend-mode:multiply">
<path d="M191.373 277.376C194.156 276.506 222.031 275.636 222.031 275.636L239.771 273.942L244.328 266.922L250.416 267.328C240.595 263.685 233.753 262.698 219.978 258.997C185.552 249.703 177.122 245.503 177.122 233.981C177.122 227.565 181.668 222.75 190.898 221.23C161.863 210.926 128.573 230.303 138.418 252.117C148.633 274.754 188.578 278.246 191.373 277.376Z" fill="#C2B7BC"/>
</g>
<g style="mix-blend-mode:multiply">
<path d="M214.355 349.836C185.9 347.875 159.196 336.481 134.614 316.675L108.467 323.161C108.467 323.161 117.048 344.429 149.561 357.494C182.074 370.559 217.381 361.845 222.019 358.364C225.138 356.032 227.828 351.739 229.266 349.163C225.185 349.987 220.199 350.231 214.343 349.836H214.355Z" fill="#C2B7BC"/>
</g>
<path d="M311.314 333.801C311.314 323.706 309.366 315.085 305.702 307.567C305.157 307.184 303.29 305.896 300.066 303.657C296.182 300.965 292.309 301.301 292.309 301.301C292.309 301.301 289.723 296.277 287.138 293.666C284.552 291.067 279.381 292.529 279.381 292.529C279.381 292.529 277.444 289.965 274.847 287.366C272.261 284.767 263.205 284.744 263.205 284.744C263.205 284.744 259.97 276.633 256.735 272.166C255.297 270.182 254.52 269.219 254.08 268.743C242.125 263.859 235.412 263.128 219.99 258.997C185.564 249.703 177.134 245.503 177.134 233.981C177.134 225.418 185.216 219.721 201.727 220.858C202.11 220.882 202.493 220.928 202.887 220.963L244.444 254.82L270.591 248.334L304.67 205.566C282.894 187.604 256.897 175.932 225.277 170.455V149.709L186.63 147.041L160.483 153.527L166.745 165.826L167.313 170.061C130.776 177.359 108.293 201.087 108.293 235.814C108.293 282.899 148.691 298.528 201.032 313.333C234.403 322.883 242.832 325.11 242.832 335.971C242.832 345.845 233 351.101 214.378 349.813C185.923 347.852 159.219 336.458 134.638 316.652L108.49 323.138L89.8568 364.015L119.077 376.987L121.79 375.095C141.258 386.896 163.278 395.064 186.619 399.601V421.333L196.092 421.983L199.118 430.476L225.266 423.99L225.764 403.232C278.163 402.757 311.337 377.753 311.337 333.766L311.314 333.801Z" stroke="#363636" stroke-linecap="round" stroke-linejoin="round"/>
<path d="M273.931 310.154C270.046 307.462 266.174 307.799 266.174 307.799C266.174 307.799 263.588 302.775 261.002 300.164C258.416 297.565 253.245 299.027 253.245 299.027C253.245 299.027 251.309 296.463 248.711 293.864C246.125 291.265 237.07 291.241 237.07 291.241C237.07 291.241 233.835 283.131 230.599 278.664C229.162 276.68 228.385 275.717 227.944 275.241C215.99 270.356 209.276 269.625 193.854 265.495C159.428 256.201 150.998 252 150.998 240.479C150.998 231.916 159.08 226.219 175.592 227.356C197.379 228.853 221.961 238.123 244.444 254.832L278.522 212.063C256.747 194.102 230.75 182.43 199.13 176.953V156.207L160.483 153.538V174.284C112.711 176.257 82.146 201.806 82.146 242.312C82.146 289.397 122.544 305.026 174.884 319.831C208.256 329.38 216.685 331.608 216.685 342.468C216.685 352.342 206.852 357.598 188.231 356.31C159.776 354.35 133.072 342.956 108.49 323.149L70.5508 363.017C95.1442 385.132 126.405 399.473 160.483 406.098V421.658L199.13 430.488V409.742C251.819 409.428 285.201 384.401 285.201 340.275C285.201 330.181 283.253 321.56 279.589 314.041C279.044 313.658 277.177 312.37 273.954 310.131L273.931 310.154Z" fill="#51D289" stroke="#363636" stroke-linecap="round" stroke-linejoin="round"/>
<path d="M273.931 310.154C270.046 307.462 266.174 307.799 266.174 307.799C266.174 307.799 263.588 302.775 261.002 300.164C258.416 297.565 253.245 299.027 253.245 299.027C253.245 299.027 251.309 296.463 248.711 293.864C246.125 291.265 237.07 291.241 237.07 291.241C237.07 291.241 233.835 283.131 230.599 278.664C229.162 276.68 228.385 275.717 227.944 275.241C215.99 270.356 209.276 269.625 193.854 265.495C159.428 256.201 150.998 252 150.998 240.479C150.998 231.916 159.08 226.219 175.592 227.356C197.379 228.853 221.961 238.123 244.444 254.832L278.522 212.063C256.747 194.102 230.75 182.43 199.13 176.953V156.207L160.483 153.538V174.284C112.711 176.257 82.146 201.806 82.146 242.312C82.146 289.397 122.544 305.026 174.884 319.831C208.256 329.38 216.685 331.608 216.685 342.468C216.685 352.342 206.852 357.598 188.231 356.31C159.776 354.35 133.072 342.956 108.49 323.149L70.5508 363.017C95.1442 385.132 126.405 399.473 160.483 406.098V421.658L199.13 430.488V409.742C251.819 409.428 285.201 384.401 285.201 340.275C285.201 330.181 283.253 321.56 279.589 314.041C279.044 313.658 277.177 312.37 273.954 310.131L273.931 310.154Z" stroke="#363636" stroke-linecap="round" stroke-linejoin="round"/>
<path d="M278.499 212.063L295.127 207.643" stroke="#363636" stroke-linecap="round" stroke-linejoin="round"/>
<path d="M199.107 156.207L216.697 152.865" stroke="#363636" stroke-linecap="round" stroke-linejoin="round"/>
<path d="M199.107 176.953L216.697 173.762" stroke="#363636" stroke-linecap="round" stroke-linejoin="round"/>
<path d="M227.921 275.241L239.771 273.942L244.386 269.625L254.068 268.755" stroke="#363636" stroke-linecap="round" stroke-linejoin="round"/>
<path d="M279.554 314.064L283.59 310.699L289.747 309.98H293.585H302.049L305.702 307.578" stroke="#363636" stroke-linecap="round" stroke-linejoin="round"/>
<path d="M300.438 267.258C300.438 267.258 313.285 267.653 317.366 269.184" stroke="#363636" stroke-linecap="round" stroke-linejoin="round"/>
<path d="M384.201 388.358C384.201 388.358 396.051 412.422 416.784 426.311" stroke="white" stroke-linecap="round" stroke-linejoin="round"/>
<path d="M499.724 246.744C499.724 246.744 506.635 232.856 527.367 239.342" stroke="#363636" stroke-linecap="round" stroke-linejoin="round"/>
<path d="M501.707 295.801C501.707 295.801 516.514 300.431 511.586 320.794" stroke="#363636" stroke-linecap="round" stroke-linejoin="round"/>
<path d="M333.507 308.727C333.507 308.727 336.812 330.041 345.694 338.372C354.575 346.703 369.394 333.743 369.394 333.743" stroke="#363636" stroke-linecap="round" stroke-linejoin="round"/>
<path d="M283.335 298.853C283.335 299.746 282.558 300.477 281.607 300.477C280.656 300.477 279.879 299.758 279.879 298.853C279.879 297.948 280.656 297.229 281.607 297.229C282.558 297.229 283.335 297.96 283.335 298.853Z" fill="white" stroke="#363636" stroke-linecap="round" stroke-linejoin="round"/>
<path d="M275.948 270.994C277.305 270.994 278.407 272.027 278.407 273.303C278.407 274.58 277.305 275.612 275.948 275.612C274.592 275.612 273.49 274.58 273.49 273.303C273.49 272.027 274.592 270.994 275.948 270.994Z" fill="white" stroke="#363636" stroke-linecap="round" stroke-linejoin="round"/>
<path d="M267.751 298.041C269.107 298.041 270.209 299.073 270.209 300.35C270.209 301.626 269.107 302.659 267.751 302.659C266.394 302.659 265.292 301.626 265.292 300.35C265.292 299.073 266.394 298.041 267.751 298.041Z" fill="white" stroke="#363636" stroke-linecap="round" stroke-linejoin="round"/>
<path d="M279.195 282.864C279.195 283.758 278.418 284.489 277.467 284.489C276.517 284.489 275.74 283.769 275.74 282.864C275.74 281.959 276.517 281.24 277.467 281.24C278.418 281.24 279.195 281.959 279.195 282.864Z" fill="white" stroke="#363636" stroke-linecap="round" stroke-linejoin="round"/>
<path d="M252.294 282.864C252.294 283.758 251.517 284.489 250.566 284.489C249.616 284.489 248.839 283.769 248.839 282.864C248.839 281.959 249.616 281.24 250.566 281.24C251.517 281.24 252.294 281.959 252.294 282.864Z" fill="white" stroke="#363636" stroke-linecap="round" stroke-linejoin="round"/>
<path d="M437.562 401.91L442.212 440.223C442.212 440.223 439.719 447.938 433.527 447.996" stroke="white" stroke-linecap="round" stroke-linejoin="round"/>
<path d="M496.083 404.52C496.083 404.52 499.794 418.455 519.309 426.287" stroke="white" stroke-linecap="round" stroke-linejoin="round"/>
<path d="M464.498 397.129L467.408 407.352" stroke="white" stroke-linecap="round" stroke-linejoin="round"/>
</g>
</svg>
