<svg width="96" height="96" viewBox="0 0 96 96" fill="none" xmlns="http://www.w3.org/2000/svg">
<path d="M50 27.6C57.12 27.6 59.76 31 60 36H68.84C68.56 29.12 64.36 22.8 56 20.76V12H44V20.64C42.44 20.96 41 21.48 39.6 22.08L45.64 28.12C46.92 27.8 48.4 27.6 50 27.6ZM21.88 15.68L16.24 21.32L30 35.08C30 43.4 36.24 47.96 45.64 50.72L59.68 64.76C58.32 66.72 55.48 68.4 50 68.4C41.76 68.4 38.52 64.72 38.08 60H29.28C29.76 68.76 36.32 73.68 44 75.32V84H56V75.4C59.84 74.68 63.32 73.2 65.84 70.92L74.72 79.8L80.36 74.16L21.88 15.68Z" fill="white" fill-opacity="0.31"/>
</svg>
