<svg width="40" height="40" viewBox="0 0 40 40" fill="none" xmlns="http://www.w3.org/2000/svg">
<circle cx="19.8895" cy="20.2762" r="19.7006" fill="#51D289"/>
<path d="M8.94482 27.3551C8.94482 27.8752 9.36272 28.2931 9.88276 28.2931H21.9459C22.4659 28.2931 22.8838 27.8752 22.8838 27.3551V26.4451H8.94482V27.3551ZM15.9097 15.292C12.4273 15.292 8.94482 17.1586 8.94482 20.8732H22.8745C22.8745 17.1586 19.3921 15.292 15.9097 15.292ZM11.3779 19.0159C12.4087 17.5765 14.6003 17.1493 15.9097 17.1493C17.2191 17.1493 19.4107 17.5765 20.4415 19.0159H11.3779ZM8.94482 22.7305H22.8745V24.5878H8.94482V22.7305ZM24.7318 11.5867V7.87213H22.8745V11.5867H18.2313L18.4449 13.444H27.3227L26.0226 26.4451H24.7318V28.3024H26.3291C27.1092 28.3024 27.7499 27.6987 27.8428 26.9373L29.3751 11.5867H24.7318Z" fill="#1E1E1E"/>
</svg>
