<svg width="40" height="40" viewBox="0 0 40 40" fill="none" xmlns="http://www.w3.org/2000/svg">
<circle cx="19.8895" cy="20.1948" r="19.7006" fill="#51D289"/>
<path d="M23.2541 14.1753C23.2541 13.2559 24.835 11.4391 24.835 11.4391C24.835 11.4391 26.4159 13.2559 26.4159 14.1753C26.4159 15.0837 25.7098 15.817 24.835 15.817C23.9602 15.817 23.2541 15.0837 23.2541 14.1753ZM27.4699 23.4783C28.9243 23.4783 30.1047 22.2525 30.1047 20.7421C30.1047 18.9144 27.4699 15.817 27.4699 15.817C27.4699 15.817 24.835 18.9144 24.835 20.7421C24.835 22.2525 26.0154 23.4783 27.4699 23.4783ZM20.6193 22.3838H18.5114V20.1949H16.4035V22.3838H14.2956V24.5728H16.4035V26.7617H18.5114V24.5728H20.6193V22.3838ZM23.7811 20.1949V28.9507C23.7811 30.1546 22.8325 31.1397 21.6732 31.1397H13.2417C12.0823 31.1397 11.1338 30.1546 11.1338 28.9507V20.1949C11.1338 16.9443 13.4103 14.2519 16.4035 13.7265V11.4391H14.2956V9.25012H20.6193C21.8102 9.25012 22.8852 9.67697 23.7705 10.3555L22.2634 11.9206C21.7786 11.6251 21.22 11.4391 20.6193 11.4391H18.5114V13.7265C21.5046 14.2519 23.7811 16.9443 23.7811 20.1949ZM21.6732 20.1949C21.6732 17.7761 19.7866 15.817 17.4574 15.817C15.1282 15.817 13.2417 17.7761 13.2417 20.1949V28.9507H21.6732V20.1949Z" fill="#1E1E1E"/>
</svg>
