<svg width="26" height="25" viewBox="0 0 26 25" fill="none" xmlns="http://www.w3.org/2000/svg">
<g clip-path="url(#clip0_304_477)">
<path d="M22.1925 7.58617V5.22939C22.1925 4.09235 21.2622 3.16205 20.1252 3.16205H5.65377C4.50639 3.16205 3.58643 4.09235 3.58643 5.22939V19.7008C3.58643 20.8378 4.50639 21.7682 5.65377 21.7682H20.1252C21.2622 21.7682 22.1925 20.8378 22.1925 19.7008V17.344C22.8024 16.9822 23.2262 16.331 23.2262 15.5661V9.36408C23.2262 8.59917 22.8024 7.94795 22.1925 7.58617ZM21.1589 9.36408V15.5661H13.9232V9.36408H21.1589ZM5.65377 19.7008V5.22939H20.1252V7.29674H13.9232C12.7861 7.29674 11.8558 8.22704 11.8558 9.36408V15.5661C11.8558 16.7032 12.7861 17.6335 13.9232 17.6335H20.1252V19.7008H5.65377Z" fill="#1E1E1E"/>
<path d="M17.0244 14.0156C17.8807 14.0156 18.5749 13.3214 18.5749 12.4651C18.5749 11.6088 17.8807 10.9146 17.0244 10.9146C16.1681 10.9146 15.4739 11.6088 15.4739 12.4651C15.4739 13.3214 16.1681 14.0156 17.0244 14.0156Z" fill="#1E1E1E"/>
</g>
<defs>
<clipPath id="clip0_304_477">
<rect width="24.8081" height="24.8081" fill="white" transform="translate(0.485352 0.0610352)"/>
</clipPath>
</defs>
</svg>
